<svg viewBox="0 0 196 45" xmlns="http://www.w3.org/2000/svg" xmlns:xlink="http://www.w3.org/1999/xlink"><linearGradient id="a" x1="50.0011%" x2="50.0011%" y1="2.398103%" y2="97.941927%"><stop offset="0" stop-color="#e41e26"/><stop offset="1" stop-color="#bc2025"/></linearGradient><linearGradient id="b" x1="49.999659%" x2="49.999659%" y1="-53.784298%" y2="156.87311%"><stop offset="0" stop-color="#5481c1"/><stop offset=".186" stop-color="#4c75b8"/><stop offset=".547" stop-color="#375ca5"/><stop offset="1" stop-color="#1e398d"/></linearGradient><g fill="none" fill-rule="evenodd"><g transform="translate(-.835 -.746)"><path d="m151 .746h45.445v44.702h-45.445z" fill="url(#a)"/><path d="m178.973 13.762v-9.03l-16.854 8.408v9.03z" fill="#fff"/><path d="m178.973 15.65-8.409 4.197v20.54h8.409z" fill="#fff"/><path d="m.835.746h146.589v44.645h-146.589z" fill="url(#b)"/></g><path d="m.187 24.244v-23.66h8.435c2.31 0 4.182.74 5.617 2.222s2.152 3.26 2.152 5.338c0 2.076-.711 3.838-2.134 5.285-1.424 1.446-3.302 2.17-5.635 2.17h-3.29v8.645zm5.145-12.915h3.115c.816 0 1.476-.291 1.977-.875.502-.584.753-1.354.753-2.31 0-.957-.251-1.727-.753-2.31-.501-.583-1.16-.875-1.977-.875h-3.115zm13.48 3.605v-5.004c0-3.127.882-5.542 2.643-7.245 1.762-1.703 3.996-2.555 6.703-2.555 2.73 0 4.976.852 6.737 2.555 1.762 1.703 2.643 4.118 2.643 7.245v5.005c0 3.15-.881 5.565-2.643 7.245-1.761 1.68-4.007 2.52-6.737 2.52-2.707 0-4.941-.846-6.703-2.537-1.761-1.692-2.642-4.101-2.642-7.228zm9.346 5.39c2.823 0 4.235-1.925 4.235-5.775v-4.27c0-3.85-1.412-5.775-4.235-5.775-2.8 0-4.2 1.925-4.2 5.775v4.27c0 3.85 1.4 5.775 4.2 5.775zm28.251-.945.98 4.235c-2.2035951.7176943-4.5064765 1.083847-6.824 1.085-2.894 0-5.228-.834-7-2.503-1.774-1.668-2.66-4.077-2.66-7.228v-5.11c0-3.149.886-5.558 2.66-7.226 1.772-1.669 4.106-2.503 7-2.503 2.31 0 4.584.362 6.824 1.085l-.98 4.2c-1.96-.607-3.897-.91-5.81-.91-3.033 0-4.55 1.925-4.55 5.775v4.234c0 2.054.391 3.536 1.173 4.446.781.91 1.907 1.365 3.377 1.365 2.053 0 3.99-.315 5.81-.945zm19.563 0 .98 4.235c-2.2039141.717798-4.507141 1.083952-6.825 1.085-2.894 0-5.227-.834-7-2.503-1.773-1.668-2.66-4.077-2.66-7.228v-5.11c0-3.149.887-5.558 2.66-7.226 1.773-1.669 4.106-2.503 7-2.503 2.31 0 4.585.362 6.824 1.085l-.98 4.2c-1.96-.607-3.896-.91-5.81-.91-3.032 0-4.549 1.925-4.549 5.775v4.234c0 2.054.391 3.536 1.173 4.446.781.91 1.907 1.365 3.376 1.365 2.054 0 3.99-.315 5.81-.945zm22.572-18.795v23.66h-5.144v-10.08c0-1.26.047-2.497.14-3.71l-8.715 13.79h-4.2v-23.66h5.146v10.255c0 1.073-.035 2.275-.106 3.605l8.716-13.86zm19.808 0v23.66h-5.146v-8.645h-1.96l-3.78 8.645h-5.74l4.41-9.38c-1.274007-.5544263-2.33989-1.4977936-3.045-2.695-.723-1.214-1.085-2.555-1.085-4.025 0-2.077.718-3.856 2.153-5.338 1.435-1.481 3.308-2.222 5.618-2.222zm-8.33 10.745h3.185v-6.37h-3.186c-.816 0-1.493.298-2.03.892-.536.595-.804 1.36-.804 2.293 0 .957.262 1.726.787 2.31s1.207.875 2.047.875z" fill="#fff" fill-rule="nonzero" transform="translate(14 10)"/></g></svg>