<svg xmlns="http://www.w3.org/2000/svg" xmlns:xlink="http://www.w3.org/1999/xlink" viewBox="0 0 203.60999 52.896998"><g transform="translate(-195.835 -348.538)"><defs><path id="a" d="M350 352.732H395.445V397.43500000000006H350z"/></defs><clipPath id="b"><use xlink:href="#a" overflow="visible" width="595.28" height="841.89"/></clipPath><linearGradient id="c" gradientUnits="userSpaceOnUse" x1=".007" y1="841.898" x2="1.007" y2="841.898" gradientTransform="matrix(0 42.7102 42.7102 0 -35584.891 353.51)"><stop offset="0" stop-color="#E41E26"/><stop offset="1" stop-color="#BC2025"/></linearGradient><path clip-path="url(#b)" fill="url(#c)" d="M350 352.732H395.445V397.43500000000006H350z"/></g><g transform="translate(-195.835 -348.538)"><defs><path id="d" d="M199.835 352.538H346.424V397.182H199.835z"/></defs><clipPath id="e"><use xlink:href="#d" overflow="visible" width="595.28" height="841.89"/></clipPath><linearGradient id="f" gradientUnits="userSpaceOnUse" y1="841.891" x2="1" y2="841.891" gradientTransform="matrix(0 94.0467 94.0467 0 -78903.773 328.614)"><stop offset="0" stop-color="#5481C1"/><stop offset=".186" stop-color="#4C75B8"/><stop offset=".547" stop-color="#375CA5"/><stop offset="1" stop-color="#1E398D"/></linearGradient><path clip-path="url(#e)" fill="url(#f)" d="M199.835 352.538H346.424V397.182H199.835z"/></g><g transform="translate(-195.835 -348.538)"><defs><path id="g" d="M0 0H595.28V841.89H0z"/></defs><clipPath id="h"><use xlink:href="#g" overflow="visible" width="595.28" height="841.89"/></clipPath><path clip-path="url(#h)" clip-rule="evenodd" d="M389.697 360.399l.004.002a.139.139 0 0 1-.012-.041 1.65 1.65 0 0 0-.523-.906c-.938-.87-2.674-.599-2.674-.599l.016.009a4.898 4.898 0 0 1-.17.018c-.906.118-1.949.746-2.559 1.383-3.938 4.118-3.951 15.56-12.563 14.561 1.088-5.363 2.123-11.486 5.428-14.398.02-.015.037-.033.061-.047l.002-.005.063-.044c.006 0 .008-.003.012-.006.021-.014.043-.03.068-.043.002-.004.006-.007.012-.008.021-.016.045-.031.07-.047.025-.018.055-.034.082-.053.004-.002.01-.003.01-.005l.076-.051.012-.006.072-.055c.002 0 .002-.002.006-.002.27-.199.471-.436.23-.766-.092-.131-.234-.186-.395-.202-.043-.002-.086-.002-.127-.002-.205.002-.426.049-.619.086h-.006c-.02.004-.035.01-.051.01-.023.006-.045.008-.068.012a.14.14 0 0 0-.035.005l-.092.011c-4.305.23-9.295-.619-13.262.65-3.563 1.138-6.459 3.831-6.82 7.97-.299 3.386.945 6.298 2.943 7.726.715.512 4.038 1.808 3.336-.569-.93-.419-2.258.006-3.104-.487-1.096-.642-1.557-2.222-1.627-3.823-.387-8.954 9.34-11.493 17.91-10.412-3.807 2.42-5.721 6.56-7.055 12.202-1.168 4.937-1.709 11.699-4.732 14.64-1.805 1.758-5.857 2.424-7.09-.732.877.102 1.314-.648 1.357-1.42a1.43 1.43 0 0 0 .018-.23c0-.912-.744-1.651-1.67-1.651a1.656 1.656 0 0 0-1.656 1.791c-.024.955.537 1.961.988 2.487 1.338 1.56 3.525 2.422 6.082 2.195 6.553-.584 7.943-7.279 9.496-14.153 2.482.067 3.77 1.013 4.572 2.685 1.469 3.056.664 8.568 2.947 10.491 1.385 1.168 3.771.916 5.041-.244.443-.402 1.391-1.595.928-1.951-.463-.359-.508.279-1.084.813-.344.318-1.078.705-1.629.654-1.453-.143-1.539-2.192-1.781-3.986-.592-4.381-1.715-7.33-5.117-8.462 5.514-.402 7.309-4.563 8.604-9.19.344-1.22.627-2.713 1.084-3.987.393-1.077.953-2.613 2.406-2.603-.176.23-.277.479-.32.728a1.785 1.785 0 0 0-.041.37c0 .893.668 1.613 1.484 1.613.822 0 1.488-.72 1.488-1.613a1.627 1.627 0 0 0-.026-.313" fill="#ffffff" fill-rule="evenodd"/><path clip-path="url(#h)" d="M226.165 365.661c-1.787-1.121-3.875-1.179-5.722-1.179h-7.687v20.759h4.842v-7.926h3.483c1.843 0 4.449.027 6.473-2.515.999-1.272 1.363-2.63 1.363-4.026 0-2.842-1.543-4.358-2.752-5.113m-2.937 7.261c-.788.728-1.847.757-2.575.757h-3.055v-5.568h3.151c.783 0 1.815.092 2.536.757.516.484.789 1.211.789 1.997-.001.754-.302 1.542-.846 2.057m17.696-8.746c-1.727 0-4.025.333-6.019 2.121-1.85 1.662-3.331 4.571-3.331 8.565 0 3.509 1.151 6.506 3.118 8.351 1.179 1.12 3.205 2.331 6.232 2.331 3.025 0 5.053-1.211 6.232-2.331 1.967-1.845 3.118-4.842 3.118-8.351 0-3.994-1.479-6.903-3.329-8.565-1.998-1.788-4.296-2.121-6.021-2.121m3.059 15.889c-.579.939-1.575 1.844-3.059 1.844-1.48 0-2.482-.905-3.055-1.844-.425-.693-1.089-2.175-1.089-5.265 0-3.087.692-4.54 1.089-5.178.877-1.388 1.935-1.813 3.055-1.813 1.121 0 2.178.425 3.059 1.813.394.638 1.086 2.091 1.086 5.178 0 3.09-.664 4.572-1.086 5.265m18.785-12.256c1.42 0 2.326.544 3.025 1.813.422.759.639 1.666.696 2.484l4.539-.361c-.242-3.181-1.998-4.994-2.36-5.356-1.875-1.849-4.296-2.21-5.9-2.21-1.576 0-4.146.209-6.357 2.419-1.752 1.755-2.997 4.69-2.997 8.234 0 2.086.487 4.569 1.512 6.354 1.031 1.786 3.393 4.358 7.809 4.358 2.846 0 4.691-1.151 5.842-2.268 1.121-1.09 2.209-2.877 2.451-5.207l-4.446-.424c-.093.817-.398 1.967-.97 2.784-.819 1.15-1.879 1.48-2.877 1.48-1.028 0-2.481-.42-3.387-2.416-.545-1.153-.726-2.633-.726-4.724 0-1.965.181-3.358.726-4.566.756-1.64 1.815-2.394 3.42-2.394m20.543 0c1.418 0 2.326.544 3.027 1.813.424.759.635 1.668.696 2.484l4.537-.361c-.242-3.181-1.996-4.994-2.36-5.356-1.877-1.849-4.296-2.21-5.9-2.21-1.576 0-4.145.209-6.357 2.419-1.756 1.755-2.995 4.69-2.995 8.234 0 2.086.485 4.569 1.514 6.354 1.027 1.786 3.387 4.36 7.807 4.36 2.845 0 4.689-1.153 5.842-2.27 1.119-1.09 2.207-2.877 2.449-5.207l-4.447-.424c-.09.817-.395 1.969-.969 2.784-.819 1.15-1.875 1.48-2.875 1.48-1.03 0-2.483-.42-3.389-2.416-.545-1.153-.726-2.633-.726-4.724 0-1.965.181-3.358.726-4.566.756-1.64 1.815-2.394 3.42-2.394m23.96-1.845l-6.268 9.985c-.178.304-.604 1.09-.813 1.878.027-.273.15-1.15.15-2.572v-10.773h-4.843v20.761h4.843v-1.666l6.26-9.957c.244-.395.639-1.271.82-1.876-.059.362-.15 1.239-.15 2.696v10.803h4.842v-20.761h-4.842v1.482zm17.153-1.483c-1.695 0-3.631.182-5.205 1.331-1.148.844-2.361 2.361-2.361 4.961 0 2.119.758 3.423 1.512 4.147.789.759 1.998 1.27 2.938 1.513l-5.021 8.809h5.266l4.264-8.293h2.846v8.293h4.842v-20.761h-9.081zm4.236 8.835h-3.723c-.664 0-1.662-.061-2.42-.664-.727-.606-.816-1.425-.816-1.938 0-1.122.453-1.724.939-2.057.572-.393 1.602-.544 2.359-.544h3.66v5.203z" fill="#ffffff"/></g></svg>