<svg height="284" width="600" xmlns="http://www.w3.org/2000/svg" xmlns:xlink="http://www.w3.org/1999/xlink"><linearGradient id="a"><stop offset="0" stop-color="#dfdede"/><stop offset="1" stop-color="#fff"/></linearGradient><linearGradient id="b"><stop offset="0" stop-color="#fcdbdb"/><stop offset="1" stop-color="#fff"/></linearGradient><linearGradient id="c"><stop offset="0" stop-color="#fff"/><stop offset="1" stop-color="#fff" stop-opacity="0"/></linearGradient><linearGradient id="d" gradientUnits="userSpaceOnUse" x1="912.1076" x2="539.3692" xlink:href="#c" y1="388.04123" y2="388.04123"/><linearGradient id="e" gradientUnits="userSpaceOnUse" x1="890.34802" x2="574.59283" xlink:href="#c" y1="355.11032" y2="355.11032"/><linearGradient id="f" gradientUnits="userSpaceOnUse" x1="907.24121" x2="526.27942" xlink:href="#c" y1="382.0715" y2="382.0715"/><linearGradient id="g" gradientUnits="userSpaceOnUse" x1="729.25757" x2="729.25757" xlink:href="#c" y1="278.61163" y2="424.92511"/><linearGradient id="h" gradientUnits="userSpaceOnUse" x1="604.71875" x2="627.83618" xlink:href="#b" y1="87.56319" y2="125.33675"/><linearGradient id="i" gradientUnits="userSpaceOnUse" x1="781.8125" x2="804.92993" xlink:href="#b" y1="87.56319" y2="125.33675"/><linearGradient id="j" gradientUnits="userSpaceOnUse" x1="39.15625" x2="62.27368" xlink:href="#a" y1="87.56319" y2="125.33675"/><linearGradient id="k" gradientUnits="userSpaceOnUse" x1="316.875" x2="339.99243" xlink:href="#a" y1="87.56319" y2="125.33675"/><g transform="matrix(.59915611 0 0 .59915611 0 .000005)"><path d="m0 59.299049h1001.4084v368.85211h-1001.4084z" fill="#bec0c2"/><path d="m510.53284 198.90706c0 110.86757-89.87593 200.7435-200.7435 200.7435-110.86758 0-200.7435-89.87593-200.7435-200.7435 0-110.867575 89.87592-200.743501 200.7435-200.743501 110.86757 0 200.7435 89.875926 200.7435 200.743501z" fill="#d40000" transform="matrix(1.1806111 0 0 1.1806111 358.24811 2.168115)"/><path d="m36.0625 84.1875v64.40625h82.3125v255.25h70.375v-255.25h82.3125v-64.40625z" fill="#fff"/><path d="m449.625 148.59375c16.22394 0 29.375 13.15106 29.375 29.375s-13.15106 29.375-29.375 29.375h-65.4375v-58.75zm-1.1875 121.5625c19.20385 0 34.78125 15.5774 34.78125 34.78125s-15.5774 34.78125-34.78125 34.78125h-64.25v-69.5625zm-134.625-185.96875v319.65625h70.375 81.03125c51.32064 0 92.9375-41.61686 92.9375-92.9375 0-30.28744-14.51146-57.16045-36.9375-74.125 19.24749-15.77719 31.53125-39.73317 31.53125-66.5625 0-47.51298-38.51827-86.03125-86.03125-86.03125z" fill="#fff"/><g transform="translate(0 -260)"><path d="m730.59375 273.78125c-60.92073 0-117.53677 22.87918-157.20313 63.64063-13.78827 14.16893-17.11046 26.23507-17.11046 38.79906 0 28.1646 76.85637 62.59156 174.43859 62.59156 97.58219 0 179.53125-14.63858 179.53125-51.28125 0-16.28708-10.07871-38.51731-30.34375-57.42187-38.93814-36.32407-92.23526-56.32813-149.3125-56.32813z" fill="url(#d)"/><path d="m730.40625 276.63097c-39.20475 0-75.12659 8.66408-103.09375 21.30653-33.17333 18.06199-57.49533 32.79882-57.90625 74.03125 30.42505 20.9127 86.0589 35.78125 149.6875 35.78125 84.16374 0 154.34139-24.19858 170.65625-56.375-3.09279-10.40064-9.53257-20.19377-18.71875-29.03125-10.78573-8.91524-22.11147-17.92191-35.07813-23.29688-33.15947-13.74534-65.24858-22.4159-105.54687-22.4159z" fill="url(#e)" opacity=".464435"/><path d="m732.05519 275.21031c-64.90751 1.62006-171.77803 37.82246-171.77803 94.83651 0 30.00174 76.96169 59.40635 171.89964 59.40635 94.93792 0 174.66634-13.68163 174.66634-47.9289 0-15.22236-9.8056-35.99937-29.5215-53.6681-37.883-33.94951-89.73588-52.64587-145.26645-52.64586z" fill="url(#f)" opacity=".6"/><path d="m730.40625 276.63097c-68.14276 0-126.42546 24.02627-150.11542 56.50288-7.16228 11.17313-10.7715 27.38193-10.88458 38.99115 36.1704-31.3606 101.49839-56.65625 161.625-56.65625 76.74023 0 140.93892 29.12474 157.34375 68.15625 2.26031-5.85265 3.46875-11.90687 3.46875-18.125 0-48.48978-72.27886-88.86903-161.4375-88.86903z" fill="url(#g)" opacity=".506276"/><path d="m678.95112 313.70704c13.25326 1.22461 31.58011 1.3203 52.08013 1.43358 76.73976.42403 140.93892 29.45287 157.34375 68.48438 2.26031-5.85265 3.46875-11.90687 3.46875-18.125 0-34.64284-36.88571-64.61809-90.46875-78.90625-24.81976-6.614-45.80521-9.26446-70.96875-8.60938-20.37999.53055-38.859 2.78311-52.14022 7.2162-27.53363 10.99787-22.14968 26.28672.68509 28.50647z" fill="#fff" opacity=".4"/></g><path d="m601.65625 84.1875v226.3125c0 53.3975 55.3771 96.6875 123.71875 96.6875 26.73927 0 51.48328-6.63976 71.71875-17.90625l38.125 44.15625c20.64996-11.62122 39.30031-26.38892 55.28125-43.65625l-45.9375-53.1875c2.97168-8.30172 4.5625-17.05117 4.5625-26.09375v-226.3125h-70.375v214.21875c-2.74673 23.38836-25.6037 42.11318-53.375 42.75s-50.59702-17.01886-53.34375-40.28125v-216.6875z" fill="#fff"/><path d="m604.71875 87.25v56.53125h67.3125v-56.53125z" fill="url(#h)"/><path d="m781.8125 87.25v56.53125h67.3125v-56.53125z" fill="url(#i)"/><path d="m39.15625 87.25v56.53125h67.3125v-56.53125z" fill="url(#j)"/><path d="m316.875 87.25v56.53125h67.3125v-56.53125z" fill="url(#k)"/></g></svg>