<svg viewBox="0 0 600 300" xmlns="http://www.w3.org/2000/svg"><g fill="none" fill-rule="evenodd"><path fill="#F72D17" d="M0 0L600 0 600 300 0 300z"/><g transform="translate(25 75)"><path d="M548.84 122.665c0 14.73-11.975 26.67-26.748 26.67-14.773 0-26.75-11.94-26.75-26.67 0-14.729 11.977-26.67 26.75-26.67s26.749 11.941 26.749 26.67z" fill="#FFF"/><path d="M198.666 1.253l-42.793 68.86V1.254h-45.947L78.78 42.29 47.225 1.428v-.175H1.249v145.55h45.976V69.212l31.555 40.833 31.147-40.31v77.068h47.084l19.12-30.792h48.544v30.792h45.976V42.61h24.432v104.193h45.976V42.61h23.148v73.575h70.408v30.618h45.975V1.253h-45.975V74.83h-24.433V1.253H198.666zm300.694 0v89.03l45.975-27.62V1.253H499.36zM224.675 37.896v36.787H201.82l22.856-36.787z" fill="#FFF" fill-rule="nonzero"/><g transform="translate(510.145 109.276)" fill="#F72D17"><path d="M0.0447572464 1.58325487L0.0447572464 4.78471316 4.04389493 4.78471316 4.04389493 25.012097 7.60516486 25.012097 7.60516486 4.78471316 11.6042826 4.78471316 11.6042826 1.58325487z"/><path d="M13.385 1.583v23.284h10.158l.964-.96v-9.023l-1.898-1.892 1.898-1.892V2.515l-.935-.932H13.385zm3.561 3.202h3.97v5.53l-1.05 1.076h-2.92V4.785zm0 9.808h2.92l1.05 1.048v6.024h-3.97v-7.072z" fill-rule="nonzero"/></g></g></g></svg>