<svg viewBox="0 0 200 200" xmlns="http://www.w3.org/2000/svg"><title>Slice 1</title><g fill="none" fill-rule="evenodd"><path fill="#39A82A" d="M0 0L200 0 200 200 0 200z"/><path d="M91 116.494a3.5 3.5 0 1 1 7 .012 3.5 3.5 0 0 1-7-.012zM152.295 111H143V99h9.458c2.934 0 5.542 2.669 5.542 5.835 0 3.666-2.77 6.165-5.705 6.165zm2.448 23H144v-12h10.743c3.522 0 6.257 2.559 6.257 5.92 0 3.678-2.567 6.08-6.257 6.08zm1.538 12c11.657 0 18.719-6.731 18.719-17.25 0-6.247-3.117-11.334-8.866-13.801 4.433-2.957 5.423-7.228 5.423-11.666 0-10.185-7.724-15.283-18.559-15.283H120v11.342h9.527v34.995H120v11.661l36.281.002zM82 88H60.116v23.17H46.884V88H25v11.342h9.47v34.996H25V146h21.884v-23.984h13.232V146H82v-11.662h-9.146V99.342H82V88zm98.595 26.132c4.276 3.119 7.405 8.546 7.405 14.79 0 9.524-2.967 15.274-8.222 20.534-5.266 5.26-13.982 8.544-24.342 8.544h-47.209v-13.584c7.392-2.739 12.657-9.845 12.657-18.175 0-8.332-5.265-15.443-12.657-18.182v-43.21H120.4v10.84h12.006v-20.7h-61.84v20.7h12.006v-10.84h12.166v43.198c-7.391 2.74-12.663 9.852-12.663 18.193 0 8.333 5.272 15.444 12.663 18.178v13.58H13V121.53h9.702v-10.844H13v-35.65h45.065V43h87.177v32.036h6.083c9.04 0 17.755 2.133 23.348 6.242 6.093 4.436 9.874 11.009 9.874 20.047-.005 3.769-.829 9.358-3.952 12.807z" fill="#FFF" fill-rule="nonzero"/></g></svg>