<svg xmlns="http://www.w3.org/2000/svg" viewBox="0 0 1036 1036"><path d="M329.404 0L0 329.451V1036h1036V0H329.406z" fill="#d40026" fill-rule="evenodd"/><path d="M565.437 397.324c-46.542.781-94.183 7.149-135.055 30.462l.032-98.402 347.645.066V184.1H371.964L253.48 302.887v280.16h173.922c12.211-18.298 28.467-44.565 85.221-44.565 72.066 0 106.591 45.689 106.591 108.616 0 54.806-29.404 108.564-103.551 108.564-51.803-1.371-86.083-30.03-91.444-81.048H217.701c22.912 159.963 151.659 218.151 296.971 221.157 170.814 5.462 306.253-62.076 316.741-263.917 0-140.128-114.721-234.53-265.976-234.53z" fill="#ffffff" fill-rule="evenodd"/></svg>