<svg viewBox="0 0 196 45" xmlns="http://www.w3.org/2000/svg" xmlns:xlink="http://www.w3.org/1999/xlink"><title>Slice 1</title><defs><path id="a" d="M0 0.732L45.445 0.732 45.445 45.435 0 45.435z"/><linearGradient x1="50.041%" y1="2.409%" x2="50.041%" y2="97.951%" id="b"><stop stop-color="#E41E26" offset="0%"/><stop stop-color="#BC2025" offset="100%"/></linearGradient><path id="d" d="M0.835 0.538L147.424 0.538 147.424 45.182 0.835 45.182z"/><linearGradient x1="50.114%" y1="-53.588%" x2="50.114%" y2="157.071%" id="e"><stop stop-color="#5481C1" offset="0%"/><stop stop-color="#4C75B8" offset="18.6%"/><stop stop-color="#375CA5" offset="54.7%"/><stop stop-color="#1E398D" offset="100%"/></linearGradient></defs><g transform="translate(-1 -1)" fill="none" fill-rule="evenodd"><g transform="translate(151.165 .462)"><mask id="c" fill="#fff"><use xlink:href="#a"/></mask><path fill="url(#b)" mask="url(#c)" d="M0 0.732L45.445 0.732 45.445 45.435 0 45.435z"/></g><g transform="translate(.165 .462)"><mask id="f" fill="#fff"><use xlink:href="#d"/></mask><path fill="url(#e)" mask="url(#f)" d="M0.835 0.538L147.424 0.538 147.424 45.182 0.835 45.182z"/></g><path d="M190.862 8.861l.004.002a.139.139 0 0 1-.012-.041 1.65 1.65 0 0 0-.523-.906c-.938-.87-2.674-.599-2.674-.599l.016.009a4.898 4.898 0 0 1-.17.018c-.906.118-1.949.746-2.559 1.383-3.938 4.118-3.951 15.56-12.563 14.561 1.088-5.363 2.123-11.486 5.428-14.398.02-.015.037-.033.061-.047l.002-.005.063-.044c.006 0 .008-.003.012-.006.021-.014.043-.03.068-.043.002-.004.006-.007.012-.008.021-.016.045-.031.07-.047.025-.018.055-.034.082-.053.004-.002.01-.003.01-.005l.076-.051.012-.006.072-.055c.002 0 .002-.002.006-.002.27-.199.471-.436.23-.766-.092-.131-.234-.186-.395-.202-.043-.002-.086-.002-.127-.002-.205.002-.426.049-.619.086h-.006c-.02.004-.035.01-.051.01-.023.006-.045.008-.068.012a.14.14 0 0 0-.035.005l-.092.011c-4.305.23-9.295-.619-13.262.65-3.563 1.138-6.459 3.831-6.82 7.97-.299 3.386.945 6.298 2.943 7.726.715.512 4.038 1.808 3.336-.569-.93-.419-2.258.006-3.104-.487-1.096-.642-1.557-2.222-1.627-3.823-.387-8.954 9.34-11.493 17.91-10.412-3.807 2.42-5.721 6.56-7.055 12.202-1.168 4.937-1.709 11.699-4.732 14.64-1.805 1.758-5.857 2.424-7.09-.732.877.102 1.314-.648 1.357-1.42a1.43 1.43 0 0 0 .018-.23c0-.912-.744-1.651-1.67-1.651a1.656 1.656 0 0 0-1.656 1.791c-.024.955.537 1.961.988 2.487 1.338 1.56 3.525 2.422 6.082 2.195 6.553-.584 7.943-7.279 9.496-14.153 2.482.067 3.77 1.013 4.572 2.685 1.469 3.056.664 8.568 2.947 10.491 1.385 1.168 3.771.916 5.041-.244.443-.402 1.391-1.595.928-1.951-.463-.359-.508.279-1.084.813-.344.318-1.078.705-1.629.654-1.453-.143-1.539-2.192-1.781-3.986-.592-4.381-1.715-7.33-5.117-8.462 5.514-.402 7.309-4.563 8.604-9.19.344-1.22.627-2.713 1.084-3.987.393-1.077.953-2.613 2.406-2.603-.176.23-.277.479-.32.728-.027.122-.04.246-.041.37 0 .893.668 1.613 1.484 1.613.822 0 1.488-.72 1.488-1.613a1.627 1.627 0 0 0-.026-.313" fill="#FFF"/><path d="M15.187 35.244v-23.66h8.435c2.31 0 4.182.74 5.617 2.222 1.435 1.482 2.152 3.26 2.152 5.338 0 2.076-.711 3.838-2.134 5.285-1.424 1.446-3.302 2.17-5.635 2.17h-3.29v8.645h-5.145zm5.145-12.915h3.115c.816 0 1.476-.291 1.977-.875.502-.584.753-1.354.753-2.31 0-.957-.251-1.727-.753-2.31-.501-.583-1.16-.875-1.977-.875h-3.115v6.37zm13.48 3.605V20.93c0-3.127.882-5.542 2.643-7.245 1.762-1.703 3.996-2.555 6.703-2.555 2.73 0 4.976.852 6.737 2.555 1.762 1.703 2.643 4.118 2.643 7.245v5.005c0 3.15-.881 5.565-2.643 7.245-1.761 1.68-4.007 2.52-6.737 2.52-2.707 0-4.941-.846-6.703-2.537-1.761-1.692-2.642-4.101-2.642-7.228l-.001-.001zm9.346 5.39c2.823 0 4.235-1.925 4.235-5.775v-4.27c0-3.85-1.412-5.775-4.235-5.775-2.8 0-4.2 1.925-4.2 5.775v4.27c0 3.85 1.4 5.775 4.2 5.775zm28.251-.945l.98 4.235a22.071 22.071 0 0 1-6.824 1.085c-2.894 0-5.228-.834-7-2.503-1.774-1.668-2.66-4.077-2.66-7.228v-5.11c0-3.149.886-5.558 2.66-7.226 1.772-1.669 4.106-2.503 7-2.503 2.31 0 4.584.362 6.824 1.085l-.98 4.2c-1.96-.607-3.897-.91-5.81-.91-3.033 0-4.55 1.925-4.55 5.775v4.234c0 2.054.391 3.536 1.173 4.446.781.91 1.907 1.365 3.377 1.365 2.053 0 3.99-.315 5.81-.945zm19.563 0l.98 4.235a22.071 22.071 0 0 1-6.825 1.085c-2.894 0-5.227-.834-7-2.503-1.773-1.668-2.66-4.077-2.66-7.228v-5.11c0-3.149.887-5.558 2.66-7.226 1.773-1.669 4.106-2.503 7-2.503 2.31 0 4.585.362 6.824 1.085l-.98 4.2c-1.96-.607-3.896-.91-5.81-.91-3.032 0-4.549 1.925-4.549 5.775v4.234c0 2.054.391 3.536 1.173 4.446.781.91 1.907 1.365 3.376 1.365 2.054 0 3.99-.315 5.81-.945h.001zm22.572-18.795v23.66H108.4v-10.08c0-1.26.047-2.497.14-3.71l-8.715 13.79h-4.2v-23.66h5.146v10.255c0 1.073-.035 2.275-.106 3.605l8.716-13.86h4.163zm19.808 0v23.66h-5.146v-8.645h-1.96l-3.78 8.645h-5.74l4.41-9.38a6.582 6.582 0 0 1-3.045-2.695c-.723-1.214-1.085-2.555-1.085-4.025 0-2.077.718-3.856 2.153-5.338 1.435-1.481 3.308-2.222 5.618-2.222h8.575zm-8.33 10.745h3.185v-6.37h-3.186c-.816 0-1.493.298-2.03.892-.536.595-.804 1.36-.804 2.293 0 .957.262 1.726.787 2.31.525.584 1.207.875 2.047.875h.001z" fill="#FFF" fill-rule="nonzero"/></g></svg>